<?xml version="1.0" encoding="utf-8"?><svg xmlns="http://www.w3.org/2000/svg" xmlns:xlink="http://www.w3.org/1999/xlink"><symbol viewBox="0 0 10 5.9" id="ico-arrow-down" xmlns="http://www.w3.org/2000/svg"><path d="M5.123 6.5l-.394-.894L9.303.596l.776.747L5.123 6.5z"/><path d="M5.674 5.526L5 6.5.08 1.484.825.707l4.848 4.82z"/></symbol><symbol viewBox="0 0 10 5.9" id="ico-arrow-down-w" xmlns="http://www.w3.org/2000/svg"><path d="M5.123 6.5l-.394-.894L9.303.596l.776.747L5.123 6.5z"/><path d="M5.674 5.526L5 6.5.08 1.484.825.707l4.848 4.82z"/></symbol><symbol viewBox="0 0 9.08 12.5" id="ico-arrow-up" xmlns="http://www.w3.org/2000/svg"><path d="M4 1l.5-.5.475.5v12H4V1z"/><path d="M4.5.5l.358.812L.705 5.86 0 5.182 4.5.5z"/><path d="M4 1.384L4.68.68l4.4 4.375-.678.705L4 1.384z"/></symbol><symbol viewBox="0 0 18.02 22" id="ico-avatar" xmlns="http://www.w3.org/2000/svg"><path d="M8.923 11.854h.141c1.284-.023 2.322-.492 3.089-1.39 1.687-1.977 1.407-5.366 1.376-5.69-.11-2.428-1.214-3.59-2.125-4.132C10.724.237 9.93.018 9.046 0h-.074C8.485 0 7.53.082 6.614.624c-.92.542-2.042 1.704-2.152 4.15-.03.324-.31 3.713 1.376 5.69.763.898 1.801 1.367 3.085 1.39zm-3.29-6.966c0-.013.004-.027.004-.036.144-3.267 2.375-3.617 3.33-3.617h.053c1.183.027 3.194.528 3.33 3.617 0 .014 0 .027.005.036.004.032.31 3.13-1.083 4.761-.552.647-1.288.966-2.257.975h-.043c-.965-.009-1.705-.328-2.253-.975-1.39-1.622-1.091-4.733-1.087-4.76z"/><path d="M17.999 17.476v-.014c0-.036-.005-.072-.005-.113-.026-.902-.083-3.012-1.985-3.686l-.044-.014c-1.976-.524-3.62-1.708-3.637-1.722a.577.577 0 0 0-.824.15.63.63 0 0 0 .145.857c.075.055 1.819 1.317 4 1.9 1.022.378 1.136 1.512 1.167 2.551 0 .041 0 .077.004.114.004.41-.022 1.043-.092 1.408-.71.419-3.493 1.867-7.726 1.867-4.215 0-7.016-1.453-7.73-1.872-.07-.364-.1-.998-.092-1.408 0-.036.004-.073.004-.114.031-1.038.145-2.173 1.166-2.55 2.182-.584 3.926-1.85 4.001-1.9a.63.63 0 0 0 .145-.857.577.577 0 0 0-.824-.15c-.018.013-1.652 1.198-3.637 1.722-.018.004-.031.009-.044.013-1.902.68-1.96 2.789-1.985 3.686a.952.952 0 0 1-.005.127c-.004.237-.009 1.454.224 2.064a.58.58 0 0 0 .228.287C.584 19.913 3.735 22 9.007 22c5.271 0 8.422-2.091 8.554-2.178a.605.605 0 0 0 .227-.287c.22-.606.215-1.822.21-2.059z"/></symbol><symbol viewBox="0 0 19.03 17.39" id="ico-cart" xmlns="http://www.w3.org/2000/svg"><path d="M15.044 12.65a2.372 2.372 0 0 0-2.37 2.37 2.372 2.372 0 0 0 2.37 2.37 2.372 2.372 0 0 0 2.369-2.37 2.372 2.372 0 0 0-2.37-2.37zm0 3.318a.949.949 0 0 1 0-1.896.949.949 0 0 1 0 1.896zm3.805-12.473a.71.71 0 0 0-.56-.273H4.387L3.747.546A.711.711 0 0 0 3.057 0H.71a.71.71 0 1 0 0 1.421h1.784l2.31 9.665a.71.71 0 0 0 .691.546H16.56a.71.71 0 0 0 .69-.54l1.73-6.989a.712.712 0 0 0-.131-.608zm-2.845 6.716H6.057l-1.33-5.568H17.38l-1.377 5.567zm-9.56 2.439a2.372 2.372 0 0 0-2.37 2.37 2.372 2.372 0 0 0 2.37 2.37 2.372 2.372 0 0 0 2.369-2.37 2.372 2.372 0 0 0-2.37-2.37zm0 3.318a.949.949 0 0 1 0-1.896.949.949 0 0 1 0 1.896z"/></symbol><symbol viewBox="0 0 19.03 17.39" id="ico-cart-white" xmlns="http://www.w3.org/2000/svg"><path d="M15.044 12.65a2.372 2.372 0 0 0-2.37 2.37 2.372 2.372 0 0 0 2.37 2.37 2.372 2.372 0 0 0 2.369-2.37 2.372 2.372 0 0 0-2.37-2.37zm0 3.318a.949.949 0 0 1 0-1.896.949.949 0 0 1 0 1.896zm3.805-12.473a.71.71 0 0 0-.56-.273H4.387L3.747.546A.711.711 0 0 0 3.057 0H.71a.71.71 0 1 0 0 1.421h1.784l2.31 9.665a.71.71 0 0 0 .691.546H16.56a.71.71 0 0 0 .69-.54l1.73-6.989a.712.712 0 0 0-.131-.608zm-2.845 6.716H6.057l-1.33-5.568H17.38l-1.377 5.567zm-9.56 2.439a2.372 2.372 0 0 0-2.37 2.37 2.372 2.372 0 0 0 2.37 2.37 2.372 2.372 0 0 0 2.369-2.37 2.372 2.372 0 0 0-2.37-2.37zm0 3.318a.949.949 0 0 1 0-1.896.949.949 0 0 1 0 1.896z"/></symbol><symbol viewBox="0 0 67.03 19.63" id="ico-dev" xmlns="http://www.w3.org/2000/svg"><path d="M67 14.91c-.197.83-.16.669-.94.673h-5.879c-.66 0-.875-.211-.875-.868V4.812c0-.673.198-.875.861-.875h6.222c.385 0 .476.045.497.42.026.35.026.7 0 1.05-.017.252-.157.373-.435.37h-4.762v2.855c.1 0 .2.011.3.011h3.805c.347 0 .447.067.476.419.029.32.029.643 0 .963-.031.352-.13.421-.476.421H61.68v3.292h4.652c.506 0 .537.028.62.525.012.046.028.09.048.133v.514zM19.441 9.887a32.94 32.94 0 0 1-.63 6.343 3.543 3.543 0 0 1-2.878 2.671c-2.61.472-5.268.638-7.917.495a44.677 44.677 0 0 1-4.607-.533C1.832 18.601.793 17.405.52 15.771a36.537 36.537 0 0 1-.513-6.787c.035-1.9.23-3.794.582-5.66A3.586 3.586 0 0 1 3.53.54a33.984 33.984 0 0 1 7.804-.495c1.553.097 3.101.271 4.637.523 1.613.255 2.664 1.427 2.95 3.132.34 2.045.514 4.114.52 6.186zM2.051 9.65c-.016 1.92.13 3.838.44 5.732.171.951.547 1.401 1.494 1.537 1.22.173 2.447.328 3.676.402 2.543.172 5.096.054 7.611-.352 1.07-.181 1.489-.543 1.665-1.549.172-.944.289-1.896.35-2.854.07-1.538.116-3.092.052-4.618-.057-1.354-.238-2.702-.435-4.043-.122-.864-.557-1.273-1.427-1.387-1.287-.169-2.571-.335-3.858-.41a31.726 31.726 0 0 0-7.61.398c-.952.178-1.347.59-1.52 1.55A33.372 33.372 0 0 0 2.05 9.65zm51.319.891h-1.886c-.45 0-.559-.09-.573-.542-.006-.303.01-.606.047-.906a.313.313 0 0 1 .362-.285H55a.592.592 0 0 1 .638.646c.014.476 0 .97 0 1.456v3.168c0 .62-.098.77-.673.963-1.646.554-3.33.74-5.026.328-2.111-.511-3.503-2.04-3.833-4.185a7.502 7.502 0 0 1 .214-3.525c.713-2.188 2.27-3.377 4.518-3.7a7.342 7.342 0 0 1 3.63.337c1.15.423 1.272.602 1.189 1.92 0 .037 0 .075-.014.113-.062.438-.203.512-.585.293a6.034 6.034 0 0 0-3.092-.868c-1.843.016-3.197 1.132-3.518 2.947a5.231 5.231 0 0 0 .26 2.97 3.375 3.375 0 0 0 4.44 1.762c.093-.04.21-.159.211-.238.027-.872.01-1.736.01-2.654zM42.594 15.61c-.295-.017-.587-.027-.882-.048a.452.452 0 0 1-.424-.36c-.223-.696-.475-1.383-.69-2.08a.265.265 0 0 0-.304-.217h-3.907a.259.259 0 0 0-.295.224c-.21.67-.443 1.334-.645 2.005a.535.535 0 0 1-.528.433c-.475.016-.932.028-1.396 0-.342-.02-.447-.188-.352-.53.11-.393.238-.778.383-1.164 1.083-3.12 2.167-6.24 3.254-9.36.157-.455.27-.552.74-.56h1.823a.713.713 0 0 1 .73.545c1.164 3.374 2.337 6.745 3.518 10.113.052.142.096.287.13.435.082.359-.013.5-.387.528-.254.021-.514 0-.77 0l.002.036zm-5.898-4.52h3.28L38.36 6.24c-.576 1.548-1.09 3.092-1.601 4.621-.021.069-.033.13-.062.236l-.002-.005zm-11.071.448v3.605a.351.351 0 0 1-.302.407 4.163 4.163 0 0 1-1.753 0 .337.337 0 0 1-.297-.38V4.728a.715.715 0 0 1 .785-.787c1.331 0 2.663-.031 3.993.033.614.036 1.22.172 1.79.402 1.211.475 1.841 1.443 1.917 2.728a5.469 5.469 0 0 1-.137 1.607c-.402 1.627-1.568 2.426-3.142 2.704-.48.07-.962.109-1.446.115-.455.021-.911.007-1.408.007zm.014-1.817h1.625c1.24 0 1.921-.628 2.047-1.86.1-.973-.335-1.772-1.144-1.993-.808-.221-1.665-.09-2.53-.119l.002 3.972z"/><path d="M8.135 9.766C7.58 9.212 7.085 8.724 6.6 8.232c-.543-.557-1.104-1.106-1.63-1.674-.475-.526-.475-1.14 0-1.603a1.144 1.144 0 0 1 1.665-.022c.973.937 1.917 1.903 2.869 2.854.077.093.146.191.207.295.138-.13.214-.2.285-.273l2.742-2.747c.33-.33.714-.554 1.19-.455a1.156 1.156 0 0 1 .649 1.95c-.53.583-1.102 1.13-1.665 1.69-.49.49-.985.974-1.49 1.471.098.103.167.179.239.253l2.882 2.887a1.21 1.21 0 0 1 .076 1.648 1.144 1.144 0 0 1-1.679.078c-.116-.097-.223-.207-.33-.313-.88-.88-1.756-1.761-2.626-2.643a2.154 2.154 0 0 1-.164-.204c-.519.502-1.006.968-1.486 1.439-.59.58-1.159 1.189-1.763 1.743a1.13 1.13 0 0 1-1.634-.067 1.19 1.19 0 0 1 .038-1.665c.952-.965 1.91-1.93 2.876-2.892.09-.078.184-.15.283-.216z"/></symbol><symbol viewBox="0 0 8 14.8" id="ico-fb" xmlns="http://www.w3.org/2000/svg"><path d="M7.699.003L5.779 0C3.625 0 2.232 1.43 2.232 3.642V5.32H.301A.302.302 0 0 0 0 5.622v2.433c0 .167.135.302.302.302H2.23v6.138c0 .167.135.302.302.302H5.05a.302.302 0 0 0 .302-.302V8.357h2.255a.302.302 0 0 0 .302-.302l.001-2.433a.302.302 0 0 0-.302-.301H5.352V3.897c0-.684.163-1.031 1.054-1.031h1.292A.302.302 0 0 0 8 2.563V.304a.302.302 0 0 0-.301-.3z"/></symbol><symbol viewBox="0 0 15 15.43" id="ico-google" xmlns="http://www.w3.org/2000/svg"><path d="M9.763 0h-3.68C4.445 0 3.31.36 2.289 1.203c-.804.693-1.283 1.7-1.283 2.695 0 1.532 1.168 3.16 3.332 3.16.208 0 .438-.021.642-.04l-.03.073c-.087.208-.17.405-.17.712 0 .597.289.966.567 1.322l.035.045-.062.004c-.894.061-2.557.175-3.772.922C.112 10.95 0 12.191 0 12.551c0 1.432 1.335 2.877 4.317 2.877 3.467 0 5.281-1.912 5.281-3.802 0-1.397-.819-2.087-1.689-2.82l-.734-.57c-.226-.189-.509-.422-.509-.855 0-.426.283-.707.532-.955l.026-.027c.792-.624 1.69-1.331 1.69-2.862 0-1.539-.961-2.334-1.424-2.716h1.221c.015 0 .03-.005.043-.013l1.051-.66A.08.08 0 0 0 9.763 0zM5.301 14.585c-2.113 0-3.533-.987-3.533-2.456 0-.96.58-1.657 1.724-2.071.916-.308 2.099-.324 2.11-.324.2 0 .302 0 .462.02 1.478 1.053 2.19 1.606 2.19 2.658 0 1.34-1.132 2.173-2.953 2.173zm-.02-8.09c-1.774 0-2.51-2.333-2.51-3.581 0-.635.145-1.122.442-1.49A1.86 1.86 0 0 1 4.619.76c1.628 0 2.53 2.19 2.53 3.702 0 .239 0 .965-.503 1.47a2.058 2.058 0 0 1-1.365.562zm9.639.711h-1.939V5.274a.08.08 0 0 0-.08-.08h-.833a.08.08 0 0 0-.08.08v1.932h-1.93a.08.08 0 0 0-.079.08v.845c0 .044.036.08.08.08h1.93v1.944c0 .044.035.08.079.08h.834a.08.08 0 0 0 .08-.08V8.21h1.938a.08.08 0 0 0 .08-.08v-.844a.08.08 0 0 0-.08-.08z"/></symbol><symbol viewBox="0 0 11 11" id="ico-inst" xmlns="http://www.w3.org/2000/svg"><path d="M7.563 0H3.438A3.438 3.438 0 0 0 0 3.438v4.124A3.438 3.438 0 0 0 3.438 11h4.124A3.438 3.438 0 0 0 11 7.562V3.438A3.438 3.438 0 0 0 7.562 0zm2.406 7.563a2.409 2.409 0 0 1-2.406 2.406H3.438A2.409 2.409 0 0 1 1.03 7.563V3.438A2.409 2.409 0 0 1 3.438 1.03h4.124A2.409 2.409 0 0 1 9.97 3.438v4.124z"/><path d="M5.5 2.75a2.75 2.75 0 1 0 0 5.5 2.75 2.75 0 0 0 0-5.5zm0 4.469A1.721 1.721 0 0 1 3.781 5.5 1.72 1.72 0 0 1 5.5 3.781c.947 0 1.719.77 1.719 1.719 0 .947-.772 1.719-1.719 1.719zm2.2-4.286a.366.366 0 1 0 0-.733.366.366 0 0 0 0 .733z"/></symbol><symbol viewBox="0 0 8.01 12.91" id="ico-ok" xmlns="http://www.w3.org/2000/svg"><path d="M4 6.933A3.467 3.467 0 1 0 4 0a3.467 3.467 0 0 0 0 6.933zM4 1.6a1.867 1.867 0 1 1 0 3.733A1.867 1.867 0 0 1 4 1.6z"/><path d="M7.396 8.576c.376-.248.603-.669.604-1.12a.967.967 0 0 0-.542-.883 1.013 1.013 0 0 0-1.067.1 4.058 4.058 0 0 1-4.781 0 1.019 1.019 0 0 0-1.067-.1.968.968 0 0 0-.543.882c0 .451.228.872.604 1.12a6.157 6.157 0 0 0 1.854.828L.846 10.979a1.067 1.067 0 1 0 1.511 1.505L4 10.784l1.646 1.703a1.067 1.067 0 1 0 1.506-1.51l-1.61-1.575c.1-.025.198-.052.293-.081a6.134 6.134 0 0 0 1.56-.745z"/></symbol><symbol viewBox="0 0 13 10.82" id="ico-tw" xmlns="http://www.w3.org/2000/svg"><path d="M13 1.25a5.326 5.326 0 0 1-1.531.42c.55-.33.972-.854 1.172-1.475a5.376 5.376 0 0 1-1.695.647 2.667 2.667 0 0 0-4.544 2.431A7.571 7.571 0 0 1 .906.488a2.665 2.665 0 0 0 .825 3.56 2.667 2.667 0 0 1-1.208-.335v.034c0 1.291.92 2.37 2.139 2.615-.223.06-.459.093-.703.093a2.56 2.56 0 0 1-.502-.05 2.668 2.668 0 0 0 2.491 1.853 5.35 5.35 0 0 1-3.312 1.14A5.67 5.67 0 0 1 0 9.36a7.538 7.538 0 0 0 4.088 1.2c4.906 0 7.587-4.064 7.587-7.588l-.009-.345A5.324 5.324 0 0 0 13 1.25z"/></symbol><symbol viewBox="0 0 15.1 8.58" id="ico-vk" xmlns="http://www.w3.org/2000/svg"><path d="M14.92 7.729a1.021 1.021 0 0 0-.05-.098c-.26-.468-.758-1.044-1.492-1.726l-.015-.015-.008-.008-.008-.008h-.008a9.016 9.016 0 0 1-.633-.64c-.161-.209-.197-.42-.11-.633.063-.162.298-.502.704-1.023.213-.276.382-.497.507-.664C14.708 1.717 15.1.951 14.98.618L14.932.54c-.03-.047-.112-.09-.242-.129a1.23 1.23 0 0 0-.5-.02l-2.249.016a.292.292 0 0 0-.156.004l-.102.024-.039.02-.03.023a.347.347 0 0 0-.087.082.54.54 0 0 0-.078.136c-.245.63-.523 1.216-.835 1.758-.193.322-.37.602-.532.84a4.03 4.03 0 0 1-.406.522 2.898 2.898 0 0 1-.296.27c-.089.068-.157.096-.203.086a5.722 5.722 0 0 1-.133-.032.52.52 0 0 1-.176-.19.857.857 0 0 1-.09-.306 3.358 3.358 0 0 1-.023-.69c.005-.162.008-.271.008-.329 0-.198.004-.412.011-.644l.02-.55A11 11 0 0 0 8.802 1c0-.151-.01-.27-.028-.356a1.215 1.215 0 0 0-.081-.25.42.42 0 0 0-.16-.187.902.902 0 0 0-.262-.105A5.197 5.197 0 0 0 7.216 0c-.968-.01-1.59.052-1.866.188-.11.057-.208.135-.297.234-.094.114-.107.177-.04.187.313.047.535.159.665.336l.047.094c.036.067.073.187.11.36.035.17.059.36.07.57.025.38.025.705 0 .975a11.92 11.92 0 0 1-.075.633 1.267 1.267 0 0 1-.2.539.135.135 0 0 1-.038.039.585.585 0 0 1-.211.039c-.073 0-.161-.037-.266-.11a1.874 1.874 0 0 1-.324-.3 4.02 4.02 0 0 1-.378-.535c-.141-.23-.287-.5-.438-.812L3.85 2.21a19.474 19.474 0 0 1-.32-.636 12.27 12.27 0 0 1-.36-.809.515.515 0 0 0-.187-.25L2.944.493A.829.829 0 0 0 2.64.376L.5.39C.282.391.134.441.056.54L.023.587A.253.253 0 0 0 0 .712c0 .057.016.127.047.21.312.735.652 1.443 1.019 2.125.367.682.686 1.231.957 1.647.27.417.546.81.828 1.18.28.37.467.606.558.71.091.105.163.183.215.235l.195.187c.125.125.308.275.55.45.243.174.51.345.805.515.294.169.637.307 1.027.414.39.106.77.15 1.14.129h.898c.183-.016.32-.073.414-.172l.031-.04a.524.524 0 0 0 .059-.144.794.794 0 0 0 .027-.214 2.573 2.573 0 0 1 .051-.606 1.57 1.57 0 0 1 .133-.406.998.998 0 0 1 .3-.343.51.51 0 0 1 .063-.028c.125-.041.272-.001.441.121.17.123.328.274.477.453.148.18.327.382.535.606.208.224.39.39.546.5l.157.093c.104.063.24.12.406.172a.875.875 0 0 0 .437.04l2-.032c.197 0 .351-.033.46-.098.11-.065.175-.137.195-.215a.604.604 0 0 0 .004-.265.971.971 0 0 0-.055-.207z"/></symbol></svg>