<svg width="275" height="158" viewBox="0 0 275 158" fill="none" xmlns="http://www.w3.org/2000/svg">
<path d="M14.3955 129.205V126.543L14.1299 126.803C13.2595 127.669 12.2302 128.359 11.0985 128.836C9.7823 129.357 8.37394 129.607 6.95858 129.569C5.88892 129.591 4.82208 129.451 3.79442 129.153C3.00077 128.926 2.26463 128.532 1.63495 127.998C1.09388 127.525 0.670781 126.932 0.39931 126.266C0.133783 125.604 -0.00148909 124.896 0.000902615 124.182C-0.0199904 123.061 0.322318 121.963 0.976711 121.052C1.73183 120.058 2.69302 119.239 3.79442 118.65C5.23099 117.869 6.74157 117.233 8.30392 116.751C10.0746 116.177 12.1051 115.611 14.3955 115.053C14.3773 113.907 14.0884 112.781 13.5525 111.768C13.12 111.002 12.5296 110.336 11.8203 109.816C11.1908 109.359 10.4731 109.039 9.71277 108.875C9.0891 108.733 8.45257 108.656 7.81313 108.644C6.98827 108.629 6.16723 108.76 5.38805 109.031C4.71946 109.273 4.09667 109.626 3.54614 110.076C3.03397 110.494 2.5966 110.995 2.25276 111.56C1.93377 112.084 1.67793 112.644 1.4906 113.229H1.01135V109.187C1.40292 109.164 1.78323 109.047 2.11996 108.846C2.54146 108.621 3.0438 108.373 3.62121 108.09C4.30177 107.775 5.00899 107.522 5.73448 107.333C6.70865 107.092 7.71036 106.979 8.71387 106.998C10.3086 106.943 11.8993 107.19 13.4024 107.726C14.4737 108.125 15.427 108.789 16.1739 109.654C16.8186 110.449 17.2605 111.388 17.4615 112.391C17.6754 113.43 17.7818 114.489 17.7791 115.55V125.868C17.7752 126.556 17.9567 127.232 18.3045 127.825C18.4319 128.096 18.6335 128.326 18.8859 128.487C19.1382 128.649 19.4311 128.736 19.7307 128.738V129.263L14.3955 129.205ZM14.3955 124.251V116.791L13.8643 116.895C13.0213 117.111 11.9935 117.39 10.781 117.732C9.58437 118.07 8.42395 118.524 7.31656 119.089C6.28839 119.601 5.34568 120.269 4.52195 121.07C4.15729 121.409 3.86654 121.82 3.66786 122.277C3.46917 122.734 3.3668 123.227 3.36715 123.726C3.36169 124.262 3.48336 124.793 3.72221 125.274C3.96105 125.754 4.31029 126.172 4.74135 126.491C5.77437 127.26 7.04107 127.647 8.32701 127.589C9.39411 127.611 10.448 127.35 11.3815 126.832C12.2868 126.31 13.105 125.649 13.8065 124.875L14.3955 124.251Z" fill="#961121"/>
<path d="M42.4918 128.679C42.7912 128.662 43.0795 128.56 43.3232 128.385C43.4741 128.293 43.5979 128.163 43.6821 128.008C43.7662 127.853 43.8078 127.678 43.8025 127.502C43.7884 127.351 43.7613 127.203 43.7216 127.057C43.6551 126.794 43.5582 126.541 43.4329 126.301L36.7351 110.659L29.7774 127.08C29.1769 128.508 27.999 129.222 26.2437 129.222H25.0889V128.697C25.6993 128.646 26.2711 128.378 26.6999 127.94C27.2775 127.439 27.7504 126.829 28.0914 126.145L35.2627 109.562C35.4171 109.215 35.5071 108.843 35.5283 108.465C35.5283 108.049 35.2454 107.841 34.6853 107.841V107.321H38.9581L47.0821 126.075C47.3782 126.678 47.7403 127.245 48.1619 127.767C48.6353 128.379 49.0857 128.679 49.5072 128.679V129.205H42.4918V128.679Z" fill="#961121"/>
<path d="M64.0577 116.837C65.4863 116.815 66.912 116.973 68.3016 117.305C69.3721 117.554 70.3891 117.994 71.3041 118.604C72.0426 119.099 72.6491 119.767 73.0709 120.55C73.457 121.295 73.6552 122.124 73.6483 122.963C73.6533 123.812 73.4553 124.649 73.0709 125.406C72.6457 126.21 72.019 126.89 71.2521 127.38C70.3038 127.987 69.2621 128.434 68.1688 128.703C66.7375 129.056 65.2663 129.223 63.7921 129.199H54.7789V128.674C55.0536 128.678 55.3191 128.575 55.518 128.385C55.7508 128.177 55.9461 127.931 56.0954 127.657C56.2521 127.363 56.3668 127.048 56.436 126.722C56.502 126.42 56.5368 126.113 56.54 125.804V110.538C56.5354 110.256 56.5006 109.975 56.436 109.7C56.3666 109.391 56.2518 109.093 56.0954 108.817C55.9399 108.554 55.7452 108.316 55.518 108.112C55.3175 107.925 55.0531 107.822 54.7789 107.824V107.304H61.7077V107.829C61.4245 107.848 61.1532 107.95 60.928 108.122C60.7029 108.295 60.5341 108.531 60.4432 108.8C60.1575 109.334 59.9956 109.926 59.9697 110.532V116.837H64.0577ZM63.6882 127.53C65.9978 127.53 67.6838 127.155 68.7231 126.376C69.1961 126.075 69.5861 125.661 69.8575 125.171C70.1289 124.68 70.2729 124.13 70.2763 123.569C70.2739 122.926 70.13 122.292 69.8548 121.71C69.5575 121.075 69.1167 120.518 68.5672 120.082C67.9246 119.58 67.2025 119.19 66.4308 118.927C65.5 118.619 64.5242 118.469 63.5438 118.483H59.9582V127.507L63.6882 127.53Z" fill="#961121"/>
<path d="M97.1658 125.81C97.169 126.119 97.2038 126.426 97.2698 126.728C97.3383 127.055 97.4551 127.37 97.6162 127.663C97.7524 127.932 97.9296 128.177 98.1416 128.391C98.2334 128.486 98.3439 128.56 98.4662 128.61C98.5885 128.66 98.7199 128.683 98.8519 128.679V129.205H91.9981V128.679C92.1276 128.676 92.2552 128.647 92.3732 128.593C92.4912 128.54 92.5973 128.463 92.6852 128.368C92.9086 128.151 93.1028 127.907 93.2626 127.64C93.4221 127.355 93.5369 127.048 93.6033 126.728C93.6692 126.426 93.704 126.119 93.7072 125.81V118.511C93.2341 118.614 92.7864 118.81 92.3907 119.089C91.8471 119.464 91.3353 119.883 90.8606 120.342C90.3216 120.861 89.8109 121.408 89.3305 121.982C88.8397 122.559 88.3836 123.165 87.9621 123.754C87.6099 124.245 87.3154 124.643 87.0671 124.955C86.8188 125.267 86.611 125.533 86.432 125.839C86.0797 126.295 85.7275 126.722 85.3811 127.12C85.0268 127.521 84.6277 127.879 84.1916 128.189C83.7183 128.516 83.1932 128.762 82.6384 128.916C81.9518 129.103 81.2424 129.192 80.5309 129.182H78.5447V128.656C78.998 128.647 79.4414 128.522 79.8323 128.293C80.2946 128.035 80.7281 127.729 81.1256 127.38C81.5534 127.012 81.9511 126.611 82.3151 126.179C82.6846 125.746 83.008 125.342 83.2909 124.955L84.9249 122.715C85.5023 121.912 86.1375 121.121 86.7668 120.342C87.3666 119.598 88.1036 118.977 88.9379 118.511C87.7933 118.496 86.6564 118.321 85.5601 117.992C84.6661 117.726 83.8271 117.301 83.083 116.739C82.4526 116.262 81.9392 115.648 81.5818 114.943C81.2488 114.27 81.0768 113.529 81.0795 112.778C81.0785 112.053 81.2507 111.338 81.5818 110.693C81.9601 109.988 82.5127 109.392 83.187 108.961C84.0537 108.405 85.0083 107.998 86.0105 107.76C87.3669 107.443 88.7576 107.295 90.1504 107.321H98.8461V107.841C98.7142 107.838 98.5832 107.862 98.461 107.912C98.3389 107.961 98.2282 108.036 98.1359 108.13C97.9296 108.34 97.7528 108.577 97.6104 108.834C97.4497 109.109 97.3328 109.407 97.264 109.718C97.1994 109.992 97.1646 110.273 97.16 110.555L97.1658 125.81ZM84.515 112.466C84.5282 113.024 84.7005 113.567 85.0116 114.031C85.3763 114.582 85.8427 115.058 86.3858 115.434C86.9917 115.867 87.6567 116.211 88.3605 116.456C89.1238 116.719 89.9263 116.85 90.7336 116.843H93.6841V108.973H90.2601C88.1526 108.973 86.6629 109.302 85.8026 109.96C85.4015 110.243 85.0749 110.618 84.8506 111.055C84.6264 111.491 84.5112 111.975 84.515 112.466Z" fill="#961121"/>
<path d="M111.191 125.81C111.194 126.119 111.229 126.426 111.295 126.728C111.359 127.045 111.465 127.352 111.612 127.64C111.743 127.905 111.91 128.149 112.109 128.368C112.191 128.464 112.293 128.541 112.407 128.595C112.522 128.649 112.646 128.678 112.773 128.679V129.205H106.127V128.679C106.251 128.68 106.373 128.655 106.487 128.605C106.6 128.555 106.702 128.482 106.785 128.391C106.997 128.182 107.167 127.935 107.288 127.663C107.427 127.364 107.533 127.05 107.605 126.728C107.671 126.426 107.706 126.119 107.709 125.81V110.538C107.705 110.256 107.67 109.975 107.605 109.7C107.533 109.395 107.427 109.098 107.288 108.817C107.161 108.555 106.991 108.317 106.785 108.112C106.701 108.022 106.599 107.95 106.486 107.9C106.373 107.85 106.251 107.824 106.127 107.824V107.304H112.773V107.824C112.64 107.821 112.509 107.846 112.386 107.895C112.263 107.945 112.151 108.019 112.057 108.112C111.857 108.316 111.696 108.555 111.584 108.817C111.459 109.101 111.362 109.397 111.295 109.7C111.23 109.975 111.195 110.256 111.191 110.538V116.837H123.212V110.538C123.206 110.255 123.169 109.975 123.103 109.7C123.035 109.397 122.939 109.101 122.814 108.817C122.701 108.555 122.54 108.316 122.34 108.112C122.247 108.019 122.137 107.946 122.015 107.896C121.893 107.847 121.762 107.822 121.63 107.824V107.304H128.27V107.824C128.139 107.821 128.008 107.845 127.885 107.894C127.763 107.944 127.653 108.018 127.56 108.112C127.354 108.317 127.184 108.555 127.058 108.817C126.918 109.095 126.821 109.393 126.769 109.7C126.72 109.977 126.693 110.257 126.688 110.538V125.81C126.691 126.119 126.726 126.426 126.792 126.728C126.861 127.044 126.968 127.35 127.11 127.64C127.245 127.912 127.418 128.162 127.624 128.385C127.704 128.481 127.805 128.559 127.919 128.613C128.032 128.667 128.156 128.695 128.282 128.697V129.222H121.642V128.697C121.765 128.696 121.888 128.67 122.001 128.62C122.114 128.571 122.216 128.499 122.3 128.408C122.508 128.196 122.678 127.95 122.802 127.681C122.942 127.382 123.047 127.068 123.114 126.745C123.182 126.444 123.219 126.136 123.224 125.827V118.569H111.191V125.81Z" fill="#961121"/>
<path d="M154.952 127.323C154.676 127.322 154.403 127.385 154.155 127.507C153.913 127.629 153.63 127.779 153.312 127.952C152.553 128.374 151.759 128.732 150.939 129.02C149.751 129.417 148.502 129.603 147.25 129.569C145.569 129.587 143.899 129.296 142.324 128.708C140.885 128.171 139.567 127.355 138.444 126.306C137.365 125.292 136.504 124.068 135.915 122.709C135.312 121.301 135.007 119.783 135.02 118.252C135.014 116.788 135.29 115.337 135.834 113.979C136.371 112.636 137.17 111.413 138.184 110.382C139.259 109.3 140.541 108.448 141.955 107.876C143.571 107.228 145.301 106.91 147.042 106.94C148.114 106.906 149.184 107.054 150.206 107.379C151.014 107.679 151.696 107.957 152.261 108.239C152.555 108.406 152.862 108.547 153.179 108.661C153.477 108.764 153.789 108.817 154.103 108.817V112.795H153.607C153.436 112.15 153.111 111.555 152.66 111.063C152.201 110.557 151.668 110.125 151.078 109.781C150.467 109.43 149.81 109.168 149.126 109.002C148.454 108.833 147.764 108.745 147.071 108.742C145.764 108.712 144.467 108.97 143.271 109.498C142.243 109.955 141.327 110.631 140.586 111.479C139.879 112.294 139.341 113.242 139.004 114.268C138.651 115.309 138.471 116.401 138.473 117.501C138.472 118.784 138.677 120.059 139.079 121.277C139.461 122.474 140.047 123.595 140.812 124.591C141.566 125.562 142.519 126.362 143.606 126.936C144.769 127.543 146.065 127.849 147.377 127.825C148.308 127.833 149.234 127.691 150.119 127.403C150.899 127.156 151.636 126.788 152.302 126.312C152.877 125.904 153.377 125.4 153.78 124.822C154.114 124.368 154.34 123.842 154.438 123.287H154.969L154.952 127.323Z" fill="#961121"/>
<path d="M190.324 129.205V126.543L190.058 126.803C189.188 127.669 188.158 128.359 187.027 128.835C185.713 129.358 184.306 129.607 182.892 129.569C181.823 129.591 180.756 129.451 179.728 129.153C178.933 128.924 178.196 128.531 177.563 127.998C177.022 127.525 176.599 126.932 176.327 126.266C176.062 125.603 175.927 124.895 175.929 124.181C175.908 123.06 176.25 121.963 176.905 121.052C177.66 120.056 178.624 119.236 179.728 118.65C181.163 117.869 182.672 117.233 184.232 116.75C186.01 116.177 188.041 115.611 190.324 115.053C190.308 113.906 190.019 112.78 189.481 111.767C189.048 111.001 188.458 110.336 187.748 109.816C187.116 109.36 186.397 109.04 185.635 108.875C185.013 108.733 184.379 108.656 183.741 108.644C182.916 108.627 182.095 108.758 181.316 109.03C180.646 109.273 180.021 109.626 179.468 110.076C178.956 110.493 178.519 110.995 178.175 111.56C177.859 112.085 177.603 112.645 177.413 113.228H176.939V109.186C177.329 109.164 177.708 109.047 178.042 108.846C178.47 108.621 178.966 108.372 179.549 108.089C180.228 107.775 180.933 107.522 181.657 107.333C182.631 107.091 183.633 106.979 184.636 106.998C186.233 106.943 187.825 107.19 189.33 107.726C190.4 108.125 191.351 108.789 192.096 109.654C192.743 110.448 193.187 111.387 193.39 112.391C193.599 113.431 193.703 114.489 193.701 115.549V125.868C193.7 126.556 193.883 127.232 194.233 127.825C194.36 128.095 194.56 128.324 194.812 128.485C195.063 128.647 195.354 128.734 195.653 128.737V129.263L190.324 129.205ZM190.324 124.251V116.791L189.798 116.895C188.955 117.11 187.927 117.389 186.715 117.732C185.518 118.07 184.358 118.524 183.25 119.089C182.223 119.602 181.281 120.27 180.456 121.069C180.092 121.409 179.801 121.821 179.603 122.277C179.404 122.734 179.301 123.227 179.301 123.725C179.294 124.262 179.415 124.792 179.653 125.273C179.891 125.753 180.239 126.171 180.669 126.491C181.702 127.259 182.969 127.647 184.255 127.588C185.322 127.61 186.376 127.349 187.31 126.832C188.216 126.311 189.034 125.65 189.735 124.874L190.324 124.251Z" fill="#961121"/>
<path d="M220.481 112.518C220.482 113.095 220.356 113.664 220.112 114.187C219.868 114.702 219.557 115.184 219.188 115.619C218.812 116.061 218.376 116.449 217.894 116.773C217.451 117.078 216.975 117.332 216.474 117.53C217.118 117.65 217.745 117.844 218.345 118.107C218.994 118.386 219.6 118.756 220.146 119.204C220.709 119.673 221.174 120.248 221.515 120.896C221.896 121.646 222.085 122.48 222.063 123.321C222.041 123.913 221.924 124.498 221.717 125.053C221.46 125.779 221.043 126.438 220.499 126.982C219.817 127.656 219.008 128.187 218.12 128.547C216.881 129.023 215.56 129.244 214.234 129.199H202.605V128.674C202.743 128.675 202.88 128.648 203.007 128.594C203.134 128.541 203.249 128.462 203.344 128.362C203.571 128.149 203.765 127.904 203.921 127.634C204.083 127.351 204.198 127.042 204.262 126.722C204.33 126.421 204.366 126.113 204.372 125.804V110.589C204.355 109.963 204.201 109.348 203.921 108.788C203.83 108.514 203.658 108.275 203.426 108.102C203.195 107.93 202.916 107.833 202.628 107.824V107.304H213.385C214.485 107.277 215.581 107.443 216.624 107.795C217.433 108.076 218.184 108.5 218.841 109.048C219.381 109.504 219.812 110.074 220.106 110.716C220.354 111.285 220.482 111.898 220.481 112.518ZM207.778 116.895H211.82C212.686 116.918 213.549 116.803 214.378 116.554C214.992 116.37 215.558 116.057 216.041 115.636C216.446 115.278 216.761 114.828 216.959 114.325C217.155 113.841 217.255 113.323 217.254 112.801C217.24 112.34 217.113 111.89 216.884 111.49C216.615 111.009 216.247 110.59 215.804 110.26C215.277 109.866 214.693 109.554 214.072 109.337C213.343 109.084 212.575 108.961 211.803 108.973H207.761L207.778 116.895ZM212.975 127.536C213.512 127.526 214.048 127.482 214.58 127.403C215.24 127.312 215.881 127.117 216.48 126.826C217.104 126.524 217.646 126.076 218.062 125.521C218.529 124.859 218.76 124.061 218.72 123.252C218.758 122.349 218.436 121.469 217.825 120.804C217.238 120.184 216.528 119.694 215.741 119.366C214.958 119.038 214.135 118.818 213.293 118.713C212.646 118.624 211.994 118.572 211.341 118.558H207.807V127.53L212.975 127.536Z" fill="#961121"/>
<path d="M246.522 112.795C246.515 112.37 246.445 111.947 246.314 111.542C246.176 111.1 245.961 110.685 245.679 110.318C245.392 109.948 245.035 109.638 244.628 109.406C244.176 109.156 243.666 109.031 243.15 109.042H238.531V125.827C238.533 126.126 238.568 126.425 238.635 126.716C238.779 127.336 239.077 127.91 239.501 128.385C239.591 128.485 239.702 128.564 239.825 128.618C239.949 128.672 240.082 128.699 240.217 128.697V129.222H233.346V128.697C233.483 128.697 233.618 128.67 233.744 128.616C233.87 128.563 233.984 128.484 234.079 128.385C234.532 127.937 234.844 127.367 234.98 126.745C235.046 126.443 235.081 126.136 235.084 125.827V109.025H230.551C230.035 109.012 229.524 109.137 229.073 109.388C228.67 109.617 228.319 109.927 228.045 110.301C227.786 110.674 227.591 111.088 227.468 111.525C227.335 111.93 227.263 112.352 227.254 112.778H226.729V107.356H247.03V112.795H246.522Z" fill="#961121"/>
<path d="M263.18 129.569C261.559 129.593 259.949 129.3 258.44 128.708C257.09 128.173 255.861 127.374 254.825 126.358C253.82 125.359 253.033 124.162 252.515 122.842C251.958 121.431 251.679 119.925 251.695 118.407C251.676 116.808 251.981 115.221 252.59 113.742C253.16 112.379 254.003 111.146 255.067 110.122C256.147 109.096 257.421 108.296 258.815 107.772C261.826 106.673 265.127 106.663 268.146 107.743C269.496 108.253 270.732 109.024 271.783 110.012C272.803 110.992 273.611 112.171 274.156 113.476C274.729 114.874 275.015 116.372 274.999 117.882C275.002 119.367 274.742 120.841 274.231 122.236C273.737 123.619 272.967 124.888 271.968 125.966C270.923 127.07 269.669 127.955 268.278 128.57C266.67 129.262 264.931 129.603 263.18 129.569ZM262.845 108.661C261.675 108.702 260.531 109.015 259.502 109.573C258.56 110.091 257.738 110.801 257.088 111.658C256.429 112.524 255.931 113.502 255.616 114.545C255.285 115.608 255.118 116.716 255.119 117.83C255.107 119.097 255.302 120.357 255.697 121.56C256.081 122.722 256.668 123.807 257.429 124.765C258.164 125.692 259.084 126.455 260.131 127.005C261.218 127.572 262.428 127.86 263.653 127.842C264.862 127.87 266.056 127.581 267.118 127.005C268.095 126.468 268.947 125.73 269.618 124.84C270.29 123.938 270.797 122.923 271.113 121.843C271.442 120.761 271.61 119.636 271.61 118.506C271.606 117.331 271.429 116.164 271.085 115.041C270.744 113.889 270.192 112.81 269.456 111.86C268.715 110.899 267.773 110.111 266.696 109.55C265.506 108.94 264.183 108.634 262.845 108.661Z" fill="#961121"/>
<path d="M37.8553 149.368H34.7835V157.256H33.8712V149.368H30.7994V148.595H37.8553V149.368Z" fill="#961121"/>
<path d="M46.4874 149.368C46.8026 149.633 47.0521 149.967 47.2164 150.345C47.3806 150.723 47.4552 151.133 47.4343 151.544C47.4557 151.954 47.3812 152.363 47.2168 152.739C47.0524 153.115 46.8027 153.447 46.4874 153.71C45.7335 154.272 44.8051 154.55 43.866 154.495H41.516V157.255H40.5922V148.594H43.866C44.8036 148.535 45.7319 148.809 46.4874 149.368ZM45.8234 153.132C46.0537 152.939 46.2357 152.695 46.355 152.42C46.4743 152.144 46.5275 151.844 46.5105 151.544C46.5294 151.241 46.4771 150.937 46.3578 150.658C46.2385 150.378 46.0555 150.13 45.8234 149.934C45.2497 149.514 44.5465 149.309 43.8371 149.356H41.5275V153.681H43.8371C44.5427 153.733 45.2446 153.539 45.8234 153.132Z" fill="#961121"/>
<path d="M55.6103 154.945H50.7371L49.6747 157.255H48.7104L52.7118 148.594H53.6241L57.6197 157.255H56.6439L55.6103 154.945ZM55.2697 154.206L53.1737 149.558L51.072 154.206H55.2697Z" fill="#961121"/>
<path d="M67.7242 148.594V157.255H66.8119V153.213H61.3439V157.255H60.4143V148.594H61.3439V152.451H66.8119V148.594H67.7242Z" fill="#961121"/>
<path d="M73.2615 156.73C72.5829 156.366 72.0175 155.823 71.6274 155.159C71.2378 154.47 71.033 153.693 71.033 152.901C71.033 152.11 71.2378 151.332 71.6274 150.644C72.0198 149.98 72.5871 149.437 73.2672 149.073C73.9892 148.685 74.7977 148.487 75.6172 148.496C76.2326 148.491 76.8436 148.6 77.4187 148.819C77.9511 149.02 78.4295 149.343 78.816 149.76L78.2386 150.338C77.9009 150 77.4977 149.736 77.0538 149.56C76.61 149.384 76.1348 149.301 75.6577 149.316C74.9986 149.307 74.3485 149.468 73.7696 149.783C73.217 150.082 72.756 150.525 72.4358 151.065C72.1217 151.624 71.9566 152.254 71.9566 152.896C71.9566 153.537 72.1217 154.167 72.4358 154.726C72.756 155.266 73.217 155.709 73.7696 156.008C74.3475 156.325 74.9983 156.487 75.6577 156.475C76.1359 156.491 76.6122 156.407 77.0564 156.229C77.5006 156.051 77.9031 155.783 78.2386 155.442L78.816 156.019C78.4272 156.438 77.9471 156.762 77.413 156.966C76.8368 157.189 76.2235 157.301 75.6057 157.295C74.7889 157.309 73.9821 157.114 73.2615 156.73Z" fill="#961121"/>
<path d="M89.1977 148.594V157.255H88.2854V149.368H82.7482V157.255H81.8416V148.594H89.1977Z" fill="#961121"/>
<path d="M94.7119 156.724C94.0285 156.36 93.459 155.815 93.0663 155.147C92.6765 154.463 92.4715 153.689 92.4715 152.901C92.4715 152.114 92.6765 151.34 93.0663 150.655C93.459 149.988 94.0285 149.443 94.7119 149.079C95.4377 148.701 96.2438 148.504 97.0619 148.504C97.88 148.504 98.6861 148.701 99.4119 149.079C100.091 149.444 100.658 149.987 101.052 150.65C101.445 151.337 101.652 152.115 101.652 152.907C101.652 153.699 101.445 154.477 101.052 155.165C100.66 155.829 100.092 156.372 99.4119 156.735C98.6861 157.113 97.88 157.31 97.0619 157.31C96.2438 157.31 95.4377 157.113 94.7119 156.735V156.724ZM98.9442 156.019C99.4911 155.721 99.9448 155.278 100.255 154.738C100.565 154.175 100.728 153.544 100.728 152.901C100.728 152.259 100.565 151.627 100.255 151.065C99.9434 150.526 99.4901 150.083 98.9442 149.783C98.3653 149.48 97.7213 149.321 97.0677 149.321C96.414 149.321 95.7701 149.48 95.1911 149.783C94.6393 150.081 94.1799 150.524 93.8631 151.065C93.5491 151.626 93.3841 152.258 93.3841 152.901C93.3841 153.544 93.5491 154.176 93.8631 154.738C94.1782 155.28 94.638 155.724 95.1911 156.019C95.7701 156.323 96.414 156.481 97.0677 156.481C97.7213 156.481 98.3653 156.323 98.9442 156.019Z" fill="#961121"/>
<path d="M110.879 149.368C111.193 149.634 111.442 149.968 111.606 150.346C111.77 150.723 111.846 151.133 111.826 151.544C111.846 151.954 111.771 152.363 111.607 152.738C111.442 153.114 111.193 153.446 110.879 153.71C110.123 154.273 109.193 154.551 108.252 154.495H105.908V157.255H104.984V148.594H108.252C109.191 148.534 110.122 148.808 110.879 149.368ZM110.215 153.132C110.444 152.939 110.626 152.694 110.745 152.419C110.864 152.144 110.918 151.844 110.902 151.544C110.92 151.241 110.867 150.938 110.748 150.658C110.628 150.379 110.446 150.131 110.215 149.934C109.641 149.514 108.938 149.309 108.229 149.356H105.919V153.681H108.229C108.94 153.737 109.649 153.543 110.232 153.132H110.215Z" fill="#961121"/>
<path d="M120.291 149.368H117.23V157.255H116.307V149.368H113.229V148.594H120.291V149.368Z" fill="#961121"/>
<path d="M130.332 148.594V157.255H129.419V153.213H123.951V157.255H123.004V148.594H123.928V152.451H129.396V148.594H130.332Z" fill="#961121"/>
<path d="M139.992 154.945H135.13L134.079 157.255H133.109L137.105 148.594H138.017L142.013 157.255H141.037L139.992 154.945ZM139.651 154.206L137.555 149.558L135.453 154.206H139.651Z" fill="#961121"/>
<path d="M150.593 148.594V157.255H149.68V154.634H147.071C146.955 154.634 146.788 154.634 146.574 154.634L144.738 157.255H143.75L145.737 154.449C145.145 154.294 144.624 153.939 144.264 153.444C143.909 152.923 143.729 152.302 143.75 151.671C143.725 151.249 143.796 150.825 143.957 150.434C144.118 150.042 144.365 149.691 144.68 149.408C145.392 148.839 146.287 148.55 147.198 148.594H150.593ZM145.304 153.271C145.824 153.688 146.481 153.894 147.146 153.848H149.68V149.385H147.255C146.577 149.341 145.905 149.546 145.367 149.962C145.136 150.173 144.956 150.433 144.84 150.723C144.724 151.013 144.675 151.325 144.697 151.637C144.678 151.934 144.722 152.232 144.826 152.511C144.931 152.789 145.094 153.043 145.304 153.254V153.271Z" fill="#961121"/>
<path d="M161.939 153.259H159.958V157.255H159.057V148.594H159.958V152.474H161.956L164.918 148.594H165.917L162.666 152.797L166.102 157.243H165.039L161.939 153.259Z" fill="#961121"/>
<path d="M170.091 156.724C169.405 156.362 168.833 155.816 168.44 155.147C168.05 154.463 167.845 153.689 167.845 152.901C167.845 152.114 168.05 151.34 168.44 150.655C168.833 149.987 169.405 149.441 170.091 149.079C170.816 148.701 171.621 148.504 172.439 148.504C173.256 148.504 174.061 148.701 174.786 149.079C175.465 149.445 176.034 149.988 176.431 150.65C176.821 151.338 177.026 152.116 177.026 152.907C177.026 153.698 176.821 154.476 176.431 155.165C176.035 155.828 175.466 156.371 174.786 156.735C174.061 157.113 173.256 157.31 172.439 157.31C171.621 157.31 170.816 157.113 170.091 156.735V156.724ZM174.318 156.019C174.865 155.721 175.319 155.278 175.629 154.738C175.939 154.175 176.102 153.544 176.102 152.901C176.102 152.259 175.939 151.627 175.629 151.065C175.317 150.526 174.864 150.083 174.318 149.783C173.739 149.48 173.095 149.321 172.442 149.321C171.788 149.321 171.144 149.48 170.565 149.783C170.013 150.081 169.554 150.524 169.237 151.065C168.923 151.626 168.758 152.258 168.758 152.901C168.758 153.544 168.923 154.176 169.237 154.738C169.552 155.28 170.012 155.724 170.565 156.019C171.144 156.323 171.788 156.481 172.442 156.481C173.095 156.481 173.739 156.323 174.318 156.019Z" fill="#961121"/>
<path d="M189.434 148.594V157.255H188.545V150.326L185.11 156.146H184.671L181.235 150.372V157.255H180.352V148.594H181.114L184.908 155.009L188.672 148.594H189.434Z" fill="#961121"/>
<path d="M200.85 148.594V157.255H199.937V149.368H194.4V157.255H193.494V148.594H200.85Z" fill="#961121"/>
<path d="M210.51 154.945H205.636L204.585 157.255H203.621L207.623 148.594H208.535L212.53 157.255H211.555L210.51 154.945ZM210.169 154.206L208.073 149.558L205.971 154.206H210.169Z" fill="#961121"/>
<path d="M222.623 148.594V157.255H221.74V153.213H216.272V157.255H215.342V148.594H216.272V152.451H221.74V148.594H222.623Z" fill="#961121"/>
<path d="M226.682 148.594H227.595V155.759L233.19 148.594H234.027V157.255H233.115V150.072L227.514 157.255H226.677L226.682 148.594Z" fill="#961121"/>
<path d="M244.259 148.594V157.255H243.346V154.634H240.736C240.621 154.634 240.453 154.634 240.24 154.634L238.427 157.255H237.439L239.426 154.449C238.834 154.294 238.313 153.939 237.953 153.444C237.598 152.923 237.418 152.302 237.439 151.671C237.414 151.249 237.485 150.825 237.646 150.434C237.807 150.042 238.054 149.691 238.369 149.408C239.083 148.843 239.978 148.558 240.887 148.605L244.259 148.594ZM238.97 153.271C239.489 153.688 240.147 153.894 240.812 153.848H243.346V149.385H240.898C240.219 149.341 239.548 149.546 239.01 149.962C238.779 150.173 238.599 150.433 238.483 150.723C238.367 151.013 238.318 151.325 238.34 151.637C238.327 151.937 238.378 152.237 238.49 152.516C238.603 152.795 238.774 153.047 238.993 153.254L238.97 153.271Z" fill="#961121"/>
<path d="M144.368 11.1092C142.728 7.06738 141.77 5.0869 140.904 3.7993C140.142 2.64449 139.374 1.7322 137.503 1.7322V0H151.759L178.793 62.5036C179.784 64.5121 180.992 66.4057 182.396 68.1506C183.97 70.1753 185.462 71.1877 186.871 71.1877V72.9199H163.521V71.1877C164.539 71.1187 165.516 70.7556 166.333 70.1426C166.832 69.8334 167.241 69.3977 167.518 68.8795C167.795 68.3613 167.93 67.7792 167.909 67.1921C167.865 66.6947 167.778 66.202 167.649 65.7197C167.425 64.8456 167.099 64.0007 166.679 63.2022L144.368 11.1092Z" fill="#961121"/>
<path d="M114.886 11.1092C113.252 7.06738 112.288 5.0869 111.422 3.7993C110.66 2.64449 109.892 1.7322 108.021 1.7322V0H122.242L149.299 62.5036C150.29 64.5121 151.498 66.4057 152.902 68.1506C154.481 70.1753 155.972 71.1877 157.377 71.1877V72.9199H134.027V71.1877C135.044 71.1192 136.019 70.7561 136.833 70.1426C137.335 69.835 137.745 69.3998 138.023 68.8813C138.301 68.3629 138.437 67.7799 138.415 67.1921C138.372 66.6943 138.283 66.2014 138.15 65.7197C137.93 64.8449 137.607 63.9997 137.185 63.2022L114.886 11.1092Z" fill="#961121"/>
<path d="M108.021 11.4729L86.0162 62.3592C84.8361 64.7125 83.206 66.8115 81.218 68.5374C79.2279 70.2696 77.3879 71.1357 75.6981 71.1357V72.9545H79.6995C85.7352 72.9545 89.777 70.5083 91.8249 65.6158L111.41 19.3833L108.021 11.4729Z" fill="#961121"/>
<path d="M114.153 50.3666C115.677 50.3666 116.913 49.1309 116.913 47.6067C116.913 46.0824 115.677 44.8467 114.153 44.8467C112.629 44.8467 111.393 46.0824 111.393 47.6067C111.393 49.1309 112.629 50.3666 114.153 50.3666Z" fill="#961121"/>
<path d="M159.404 30.8851V27.5304L198.886 29.2049L159.404 30.8851Z" fill="#961121"/>
<path d="M161.096 38.1431V34.7884L200.572 36.4628L161.096 38.1431Z" fill="#961121"/>
<path d="M163.515 45.4241V42.0694L202.992 43.7438L163.515 45.4241Z" fill="#961121"/>
<path d="M102.103 30.8505V27.4958L62.6257 29.1703L102.103 30.8505Z" fill="#961121"/>
<path d="M100.417 38.1084V34.7537L60.9397 36.4282L100.417 38.1084Z" fill="#961121"/>
<path d="M97.9973 45.3837V42.0347L58.5146 43.7092L97.9973 45.3837Z" fill="#961121"/>
</svg>
